<mxfile host="app.diagrams.net" modified="2021-03-04T07:05:36.401Z" agent="5.0 (Macintosh; Intel Mac OS X 10_12_6) AppleWebKit/537.36 (KHTML, like Gecko) Chrome/87.0.4280.141 Safari/537.36" etag="h1_QWL7oIiKWskQwPVU5" version="14.4.3" type="github">
  <diagram id="C5RBs43oDa-KdzZeNtuy" name="Page-1">
    <mxGraphModel dx="579" dy="631" grid="1" gridSize="10" guides="1" tooltips="1" connect="1" arrows="1" fold="1" page="1" pageScale="1" pageWidth="827" pageHeight="1169" math="0" shadow="0">
      <root>
        <mxCell id="WIyWlLk6GJQsqaUBKTNV-0" />
        <mxCell id="WIyWlLk6GJQsqaUBKTNV-1" parent="WIyWlLk6GJQsqaUBKTNV-0" />
        <mxCell id="WIyWlLk6GJQsqaUBKTNV-2" value="" style="rounded=0;html=1;jettySize=auto;orthogonalLoop=1;fontSize=11;endArrow=block;endFill=0;endSize=8;strokeWidth=1;shadow=0;labelBackgroundColor=none;edgeStyle=orthogonalEdgeStyle;" parent="WIyWlLk6GJQsqaUBKTNV-1" source="WIyWlLk6GJQsqaUBKTNV-3" edge="1">
          <mxGeometry relative="1" as="geometry">
            <mxPoint x="220" y="160" as="targetPoint" />
          </mxGeometry>
        </mxCell>
        <mxCell id="WIyWlLk6GJQsqaUBKTNV-3" value="Pizza size" style="rounded=1;whiteSpace=wrap;html=1;fontSize=12;glass=0;strokeWidth=1;shadow=0;" parent="WIyWlLk6GJQsqaUBKTNV-1" vertex="1">
          <mxGeometry x="160" y="90" width="120" height="40" as="geometry" />
        </mxCell>
        <mxCell id="WIyWlLk6GJQsqaUBKTNV-6" value="$20" style="rhombus;whiteSpace=wrap;html=1;shadow=0;fontFamily=Helvetica;fontSize=12;align=center;strokeWidth=1;spacing=6;spacingTop=-4;" parent="WIyWlLk6GJQsqaUBKTNV-1" vertex="1">
          <mxGeometry x="170" y="160" width="100" height="80" as="geometry" />
        </mxCell>
        <mxCell id="oWR1R5W69DemEEcMcihX-23" value="" style="edgeStyle=orthogonalEdgeStyle;rounded=1;orthogonalLoop=1;jettySize=auto;html=1;endArrow=block;endFill=0;strokeColor=#FFFFFF;" edge="1" parent="WIyWlLk6GJQsqaUBKTNV-1" source="WIyWlLk6GJQsqaUBKTNV-7" target="oWR1R5W69DemEEcMcihX-14">
          <mxGeometry relative="1" as="geometry" />
        </mxCell>
        <mxCell id="WIyWlLk6GJQsqaUBKTNV-7" value="Pepperoni" style="rounded=1;whiteSpace=wrap;html=1;fontSize=12;glass=0;strokeWidth=1;shadow=0;" parent="WIyWlLk6GJQsqaUBKTNV-1" vertex="1">
          <mxGeometry x="160" y="307" width="120" height="40" as="geometry" />
        </mxCell>
        <mxCell id="oWR1R5W69DemEEcMcihX-0" value="$25" style="rhombus;whiteSpace=wrap;html=1;shadow=0;fontFamily=Helvetica;fontSize=12;align=center;strokeWidth=1;spacing=6;spacingTop=-4;" vertex="1" parent="WIyWlLk6GJQsqaUBKTNV-1">
          <mxGeometry x="330" y="160" width="100" height="80" as="geometry" />
        </mxCell>
        <mxCell id="oWR1R5W69DemEEcMcihX-1" value="15$" style="rhombus;whiteSpace=wrap;html=1;shadow=0;fontFamily=Helvetica;fontSize=12;align=center;strokeWidth=1;spacing=6;spacingTop=-4;" vertex="1" parent="WIyWlLk6GJQsqaUBKTNV-1">
          <mxGeometry x="20" y="160" width="100" height="80" as="geometry" />
        </mxCell>
        <mxCell id="oWR1R5W69DemEEcMcihX-2" value="" style="rounded=0;html=1;jettySize=auto;orthogonalLoop=1;fontSize=11;endArrow=block;endFill=0;endSize=8;strokeWidth=1;shadow=0;labelBackgroundColor=none;edgeStyle=orthogonalEdgeStyle;entryX=0.5;entryY=0;entryDx=0;entryDy=0;" edge="1" parent="WIyWlLk6GJQsqaUBKTNV-1" target="oWR1R5W69DemEEcMcihX-1">
          <mxGeometry relative="1" as="geometry">
            <mxPoint x="159" y="120" as="sourcePoint" />
            <mxPoint x="159" y="170" as="targetPoint" />
          </mxGeometry>
        </mxCell>
        <mxCell id="oWR1R5W69DemEEcMcihX-3" value="" style="rounded=0;html=1;jettySize=auto;orthogonalLoop=1;fontSize=11;endArrow=block;endFill=0;endSize=8;strokeWidth=1;shadow=0;labelBackgroundColor=none;edgeStyle=orthogonalEdgeStyle;entryX=0.5;entryY=0;entryDx=0;entryDy=0;" edge="1" parent="WIyWlLk6GJQsqaUBKTNV-1" source="WIyWlLk6GJQsqaUBKTNV-3" target="oWR1R5W69DemEEcMcihX-0">
          <mxGeometry relative="1" as="geometry">
            <mxPoint x="280" y="110" as="sourcePoint" />
            <mxPoint x="280" y="160" as="targetPoint" />
            <Array as="points">
              <mxPoint x="380" y="120" />
            </Array>
          </mxGeometry>
        </mxCell>
        <mxCell id="oWR1R5W69DemEEcMcihX-4" value="S" style="text;html=1;strokeColor=none;fillColor=none;align=center;verticalAlign=middle;whiteSpace=wrap;rounded=0;" vertex="1" parent="WIyWlLk6GJQsqaUBKTNV-1">
          <mxGeometry x="90" y="100" width="40" height="20" as="geometry" />
        </mxCell>
        <mxCell id="oWR1R5W69DemEEcMcihX-5" value="M" style="text;html=1;strokeColor=none;fillColor=none;align=center;verticalAlign=middle;whiteSpace=wrap;rounded=0;" vertex="1" parent="WIyWlLk6GJQsqaUBKTNV-1">
          <mxGeometry x="190" y="130" width="40" height="20" as="geometry" />
        </mxCell>
        <mxCell id="oWR1R5W69DemEEcMcihX-6" value="L" style="text;html=1;strokeColor=none;fillColor=none;align=center;verticalAlign=middle;whiteSpace=wrap;rounded=0;" vertex="1" parent="WIyWlLk6GJQsqaUBKTNV-1">
          <mxGeometry x="310" y="100" width="40" height="20" as="geometry" />
        </mxCell>
        <mxCell id="oWR1R5W69DemEEcMcihX-7" value="" style="endArrow=block;html=1;rounded=1;endFill=0;exitX=0.5;exitY=1;exitDx=0;exitDy=0;entryX=0.5;entryY=0;entryDx=0;entryDy=0;" edge="1" parent="WIyWlLk6GJQsqaUBKTNV-1" source="oWR1R5W69DemEEcMcihX-1" target="oWR1R5W69DemEEcMcihX-30">
          <mxGeometry width="50" height="50" relative="1" as="geometry">
            <mxPoint x="140" y="400" as="sourcePoint" />
            <mxPoint x="190" y="350" as="targetPoint" />
          </mxGeometry>
        </mxCell>
        <mxCell id="oWR1R5W69DemEEcMcihX-8" value="" style="endArrow=block;html=1;rounded=1;endFill=0;" edge="1" parent="WIyWlLk6GJQsqaUBKTNV-1" source="WIyWlLk6GJQsqaUBKTNV-6" target="WIyWlLk6GJQsqaUBKTNV-7">
          <mxGeometry width="50" height="50" relative="1" as="geometry">
            <mxPoint x="80" y="250" as="sourcePoint" />
            <mxPoint x="220" y="320" as="targetPoint" />
          </mxGeometry>
        </mxCell>
        <mxCell id="oWR1R5W69DemEEcMcihX-9" value="" style="endArrow=block;html=1;rounded=1;endFill=0;" edge="1" parent="WIyWlLk6GJQsqaUBKTNV-1" source="oWR1R5W69DemEEcMcihX-0" target="oWR1R5W69DemEEcMcihX-29">
          <mxGeometry width="50" height="50" relative="1" as="geometry">
            <mxPoint x="90" y="260" as="sourcePoint" />
            <mxPoint x="230" y="310" as="targetPoint" />
          </mxGeometry>
        </mxCell>
        <mxCell id="oWR1R5W69DemEEcMcihX-13" value="" style="rounded=0;html=1;jettySize=auto;orthogonalLoop=1;fontSize=11;endArrow=block;endFill=0;endSize=8;strokeWidth=1;shadow=0;labelBackgroundColor=none;edgeStyle=orthogonalEdgeStyle;entryX=0.5;entryY=0;entryDx=0;entryDy=0;" edge="1" parent="WIyWlLk6GJQsqaUBKTNV-1" source="oWR1R5W69DemEEcMcihX-30">
          <mxGeometry relative="1" as="geometry">
            <mxPoint x="140" y="337" as="sourcePoint" />
            <mxPoint x="70" y="377" as="targetPoint" />
          </mxGeometry>
        </mxCell>
        <mxCell id="oWR1R5W69DemEEcMcihX-14" value="+$2" style="rhombus;whiteSpace=wrap;html=1;shadow=0;fontFamily=Helvetica;fontSize=12;align=center;strokeWidth=1;spacing=6;spacingTop=-4;" vertex="1" parent="WIyWlLk6GJQsqaUBKTNV-1">
          <mxGeometry x="20" y="378" width="100" height="80" as="geometry" />
        </mxCell>
        <mxCell id="oWR1R5W69DemEEcMcihX-15" value="+$3" style="rhombus;whiteSpace=wrap;html=1;shadow=0;fontFamily=Helvetica;fontSize=12;align=center;strokeWidth=1;spacing=6;spacingTop=-4;" vertex="1" parent="WIyWlLk6GJQsqaUBKTNV-1">
          <mxGeometry x="245" y="378" width="100" height="80" as="geometry" />
        </mxCell>
        <mxCell id="oWR1R5W69DemEEcMcihX-16" value="" style="rounded=0;html=1;jettySize=auto;orthogonalLoop=1;fontSize=11;endArrow=block;endFill=0;endSize=8;strokeWidth=1;shadow=0;labelBackgroundColor=none;edgeStyle=orthogonalEdgeStyle;entryX=0.5;entryY=0;entryDx=0;entryDy=0;" edge="1" parent="WIyWlLk6GJQsqaUBKTNV-1">
          <mxGeometry relative="1" as="geometry">
            <mxPoint x="154" y="510" as="sourcePoint" />
            <mxPoint x="65" y="550" as="targetPoint" />
          </mxGeometry>
        </mxCell>
        <mxCell id="oWR1R5W69DemEEcMcihX-17" value="N" style="text;html=1;strokeColor=none;fillColor=none;align=center;verticalAlign=middle;whiteSpace=wrap;rounded=0;" vertex="1" parent="WIyWlLk6GJQsqaUBKTNV-1">
          <mxGeometry x="305" y="490" width="40" height="20" as="geometry" />
        </mxCell>
        <mxCell id="oWR1R5W69DemEEcMcihX-27" value="" style="edgeStyle=orthogonalEdgeStyle;rounded=1;orthogonalLoop=1;jettySize=auto;html=1;endArrow=block;endFill=0;strokeColor=#FFFFFF;" edge="1" parent="WIyWlLk6GJQsqaUBKTNV-1" source="oWR1R5W69DemEEcMcihX-18" target="oWR1R5W69DemEEcMcihX-22">
          <mxGeometry relative="1" as="geometry" />
        </mxCell>
        <mxCell id="oWR1R5W69DemEEcMcihX-18" value="+$1" style="rhombus;whiteSpace=wrap;html=1;shadow=0;fontFamily=Helvetica;fontSize=12;align=center;strokeWidth=1;spacing=6;spacingTop=-4;" vertex="1" parent="WIyWlLk6GJQsqaUBKTNV-1">
          <mxGeometry x="15" y="551" width="100" height="80" as="geometry" />
        </mxCell>
        <mxCell id="oWR1R5W69DemEEcMcihX-20" value="Cheese" style="rounded=1;whiteSpace=wrap;html=1;fontSize=12;glass=0;strokeWidth=1;shadow=0;" vertex="1" parent="WIyWlLk6GJQsqaUBKTNV-1">
          <mxGeometry x="155" y="493" width="120" height="40" as="geometry" />
        </mxCell>
        <mxCell id="oWR1R5W69DemEEcMcihX-21" value="" style="rounded=0;html=1;jettySize=auto;orthogonalLoop=1;fontSize=11;endArrow=block;endFill=0;endSize=8;strokeWidth=1;shadow=0;labelBackgroundColor=none;edgeStyle=orthogonalEdgeStyle;entryX=1;entryY=0.5;entryDx=0;entryDy=0;" edge="1" parent="WIyWlLk6GJQsqaUBKTNV-1" source="oWR1R5W69DemEEcMcihX-20" target="oWR1R5W69DemEEcMcihX-26">
          <mxGeometry relative="1" as="geometry">
            <mxPoint x="275" y="521" as="sourcePoint" />
            <mxPoint x="320" y="670" as="targetPoint" />
            <Array as="points">
              <mxPoint x="375" y="511" />
              <mxPoint x="375" y="670" />
            </Array>
          </mxGeometry>
        </mxCell>
        <mxCell id="oWR1R5W69DemEEcMcihX-22" value="Y" style="text;html=1;strokeColor=none;fillColor=none;align=center;verticalAlign=middle;whiteSpace=wrap;rounded=0;" vertex="1" parent="WIyWlLk6GJQsqaUBKTNV-1">
          <mxGeometry x="90" y="490" width="40" height="20" as="geometry" />
        </mxCell>
        <mxCell id="oWR1R5W69DemEEcMcihX-24" value="" style="endArrow=block;html=1;entryX=0.5;entryY=0;entryDx=0;entryDy=0;rounded=1;endFill=0;" edge="1" parent="WIyWlLk6GJQsqaUBKTNV-1" source="oWR1R5W69DemEEcMcihX-14">
          <mxGeometry width="50" height="50" relative="1" as="geometry">
            <mxPoint x="70" y="413" as="sourcePoint" />
            <mxPoint x="220" y="493" as="targetPoint" />
          </mxGeometry>
        </mxCell>
        <mxCell id="oWR1R5W69DemEEcMcihX-25" value="" style="endArrow=block;html=1;rounded=1;endFill=0;entryX=0.5;entryY=0;entryDx=0;entryDy=0;" edge="1" parent="WIyWlLk6GJQsqaUBKTNV-1" source="oWR1R5W69DemEEcMcihX-15">
          <mxGeometry width="50" height="50" relative="1" as="geometry">
            <mxPoint x="380" y="413" as="sourcePoint" />
            <mxPoint x="220" y="493" as="targetPoint" />
          </mxGeometry>
        </mxCell>
        <mxCell id="oWR1R5W69DemEEcMcihX-26" value="Final bill" style="rounded=1;whiteSpace=wrap;html=1;fontSize=12;glass=0;strokeWidth=1;shadow=0;" vertex="1" parent="WIyWlLk6GJQsqaUBKTNV-1">
          <mxGeometry x="155" y="650" width="120" height="40" as="geometry" />
        </mxCell>
        <mxCell id="oWR1R5W69DemEEcMcihX-28" value="" style="rounded=0;html=1;jettySize=auto;orthogonalLoop=1;fontSize=11;endArrow=block;endFill=0;endSize=8;strokeWidth=1;shadow=0;labelBackgroundColor=none;edgeStyle=orthogonalEdgeStyle;entryX=0;entryY=0.75;entryDx=0;entryDy=0;" edge="1" parent="WIyWlLk6GJQsqaUBKTNV-1" source="oWR1R5W69DemEEcMcihX-18" target="oWR1R5W69DemEEcMcihX-26">
          <mxGeometry relative="1" as="geometry">
            <mxPoint x="164" y="520" as="sourcePoint" />
            <mxPoint x="75" y="560" as="targetPoint" />
            <Array as="points">
              <mxPoint x="65" y="680" />
            </Array>
          </mxGeometry>
        </mxCell>
        <mxCell id="oWR1R5W69DemEEcMcihX-29" value="Pepperoni" style="rounded=1;whiteSpace=wrap;html=1;fontSize=12;glass=0;strokeWidth=1;shadow=0;" vertex="1" parent="WIyWlLk6GJQsqaUBKTNV-1">
          <mxGeometry x="320" y="300" width="120" height="40" as="geometry" />
        </mxCell>
        <mxCell id="oWR1R5W69DemEEcMcihX-30" value="Pepperoni" style="rounded=1;whiteSpace=wrap;html=1;fontSize=12;glass=0;strokeWidth=1;shadow=0;" vertex="1" parent="WIyWlLk6GJQsqaUBKTNV-1">
          <mxGeometry x="10" y="307" width="120" height="40" as="geometry" />
        </mxCell>
        <mxCell id="oWR1R5W69DemEEcMcihX-32" value="" style="endArrow=block;html=1;rounded=1;endFill=0;entryX=0.5;entryY=0;entryDx=0;entryDy=0;" edge="1" parent="WIyWlLk6GJQsqaUBKTNV-1" target="oWR1R5W69DemEEcMcihX-15">
          <mxGeometry width="50" height="50" relative="1" as="geometry">
            <mxPoint x="372.7777777777778" y="340.00222222222214" as="sourcePoint" />
            <mxPoint x="320" y="392.78" as="targetPoint" />
          </mxGeometry>
        </mxCell>
        <mxCell id="oWR1R5W69DemEEcMcihX-33" value="" style="endArrow=block;html=1;rounded=1;endFill=0;entryX=0.5;entryY=0;entryDx=0;entryDy=0;" edge="1" parent="WIyWlLk6GJQsqaUBKTNV-1" target="oWR1R5W69DemEEcMcihX-15">
          <mxGeometry width="50" height="50" relative="1" as="geometry">
            <mxPoint x="217.77777777777783" y="347.00222222222214" as="sourcePoint" />
            <mxPoint x="140" y="385" as="targetPoint" />
          </mxGeometry>
        </mxCell>
      </root>
    </mxGraphModel>
  </diagram>
</mxfile>
